name baseline.mot
datacolumns 19
datarows 27
range 2.47998900000000 2.52332200000000
endheader
time	ground_force1_vx	ground_force1_vy	ground_force1_vz	ground_force1_px	ground_force1_py	ground_force1_pz	ground_force2_vx	ground_force2_vy	ground_force2_vz	ground_force2_px	ground_force2_py	ground_force2_pz	ground_torque1_x	ground_torque1_y	ground_torque1_z	ground_torque2_x	ground_torque2_y	ground_torque2_z	
2.47998900000000	74.73602300000000	798.12838699999998	72.07298400000001	0.13002900000000	0.00000000000000	0.13023000000000	0.00000000000000	0.00000000000000	0.00000000000000	0.00000000000000	0.00000000000000	0.00000000000000	0.00000000000000	-1.60494900000000	0.00000000000000	0.00000000000000	0.00000000000000	0.00000000000000	
2.48166200000000	73.95986800000000	800.16486099999997	72.10099200000001	0.12910200000000	0.00000000000000	0.13020800000000	0.00000000000000	0.00000000000000	0.00000000000000	0.00000000000000	0.00000000000000	0.00000000000000	0.00000000000000	-1.56155100000000	0.00000000000000	0.00000000000000	0.00000000000000	0.00000000000000	
2.48332400000000	73.17384300000001	802.03494499999999	72.13165600000001	0.12816200000000	0.00000000000000	0.13018900000000	0.00000000000000	0.00000000000000	0.00000000000000	0.00000000000000	0.00000000000000	0.00000000000000	0.00000000000000	-1.51509400000000	0.00000000000000	0.00000000000000	0.00000000000000	0.00000000000000	
2.48498900000000	72.37833100000000	803.73766599999999	72.16485000000000	0.12720800000000	0.00000000000000	0.13017200000000	0.00000000000000	0.00000000000000	0.00000000000000	0.00000000000000	0.00000000000000	0.00000000000000	0.00000000000000	-1.46567900000000	0.00000000000000	0.00000000000000	0.00000000000000	0.00000000000000	
2.48666000000000	71.57371500000001	805.27236000000005	72.20036100000000	0.12624000000000	0.00000000000000	0.13015900000000	0.00000000000000	0.00000000000000	0.00000000000000	0.00000000000000	0.00000000000000	0.00000000000000	0.00000000000000	-1.41342200000000	0.00000000000000	0.00000000000000	0.00000000000000	0.00000000000000	
2.48832600000000	70.76037900000000	806.63867300000004	72.23789700000000	0.12525700000000	0.00000000000000	0.13014800000000	0.00000000000000	0.00000000000000	0.00000000000000	0.00000000000000	0.00000000000000	0.00000000000000	0.00000000000000	-1.35845600000000	0.00000000000000	0.00000000000000	0.00000000000000	0.00000000000000	
2.48999100000000	69.93871600000000	807.83656699999995	72.27708900000000	0.12426000000000	0.00000000000000	0.13014100000000	0.00000000000000	0.00000000000000	0.00000000000000	0.00000000000000	0.00000000000000	0.00000000000000	0.00000000000000	-1.30092900000000	0.00000000000000	0.00000000000000	0.00000000000000	0.00000000000000	
2.49165900000000	69.10912300000000	808.86632699999996	72.31749900000000	0.12324700000000	0.00000000000000	0.13013600000000	0.00000000000000	0.00000000000000	0.00000000000000	0.00000000000000	0.00000000000000	0.00000000000000	0.00000000000000	-1.24100500000000	0.00000000000000	0.00000000000000	0.00000000000000	0.00000000000000	
2.49332200000000	68.27201100000001	809.72855800000002	72.35862299999999	0.12221900000000	0.00000000000000	0.13013400000000	0.00000000000000	0.00000000000000	0.00000000000000	0.00000000000000	0.00000000000000	0.00000000000000	0.00000000000000	-1.17885800000000	0.00000000000000	0.00000000000000	0.00000000000000	0.00000000000000	
2.49499100000000	67.42780200000000	810.42418799999996	72.39989799999999	0.12117500000000	0.00000000000000	0.13013400000000	0.00000000000000	0.00000000000000	0.00000000000000	0.00000000000000	0.00000000000000	0.00000000000000	0.00000000000000	-1.11467600000000	0.00000000000000	0.00000000000000	0.00000000000000	0.00000000000000	
2.49665900000000	66.57693300000000	810.95446600000002	72.44070700000000	0.12011600000000	0.00000000000000	0.13013800000000	0.00000000000000	0.00000000000000	0.00000000000000	0.00000000000000	0.00000000000000	0.00000000000000	0.00000000000000	-1.04865700000000	0.00000000000000	0.00000000000000	0.00000000000000	0.00000000000000	
2.49832600000000	65.71985599999999	811.32096400000000	72.48038800000000	0.11904200000000	0.00000000000000	0.13014300000000	0.00000000000000	0.00000000000000	0.00000000000000	0.00000000000000	0.00000000000000	0.00000000000000	0.00000000000000	-0.98100800000000	0.00000000000000	0.00000000000000	0.00000000000000	0.00000000000000	
2.49998900000000	64.85704400000000	811.52557000000002	72.51823400000001	0.11795300000000	0.00000000000000	0.13015200000000	0.00000000000000	0.00000000000000	0.00000000000000	0.00000000000000	0.00000000000000	0.00000000000000	0.00000000000000	-0.91194500000000	0.00000000000000	0.00000000000000	0.00000000000000	0.00000000000000	
2.50166200000000	63.98898500000000	811.57048399999996	72.55350900000001	0.11684900000000	0.00000000000000	0.13016300000000	0.00000000000000	0.00000000000000	0.00000000000000	0.00000000000000	0.00000000000000	0.00000000000000	0.00000000000000	-0.84168800000000	0.00000000000000	0.00000000000000	0.00000000000000	0.00000000000000	
2.50332700000000	63.11619000000000	811.45821599999999	72.58544400000000	0.11573100000000	0.00000000000000	0.13017600000000	0.00000000000000	0.00000000000000	0.00000000000000	0.00000000000000	0.00000000000000	0.00000000000000	0.00000000000000	-0.77046400000000	0.00000000000000	0.00000000000000	0.00000000000000	0.00000000000000	
2.50499500000000	62.23918900000000	811.19157600000005	72.61325400000000	0.11459900000000	0.00000000000000	0.13019100000000	0.00000000000000	0.00000000000000	0.00000000000000	0.00000000000000	0.00000000000000	0.00000000000000	0.00000000000000	-0.69850300000000	0.00000000000000	0.00000000000000	0.00000000000000	0.00000000000000	
2.50665400000000	61.35853400000000	810.77366900000004	72.63613700000001	0.11345400000000	0.00000000000000	0.13020800000000	0.00000000000000	0.00000000000000	0.00000000000000	0.00000000000000	0.00000000000000	0.00000000000000	0.00000000000000	-0.62603600000000	0.00000000000000	0.00000000000000	0.00000000000000	0.00000000000000	
2.50832000000000	60.47479600000000	810.20788500000003	72.65328300000000	0.11229600000000	0.00000000000000	0.13022800000000	0.00000000000000	0.00000000000000	0.00000000000000	0.00000000000000	0.00000000000000	0.00000000000000	0.00000000000000	-0.55329800000000	0.00000000000000	0.00000000000000	0.00000000000000	0.00000000000000	
2.50998800000000	59.58856800000000	809.49789099999998	72.66388400000000	0.11112700000000	0.00000000000000	0.13024900000000	0.00000000000000	0.00000000000000	0.00000000000000	0.00000000000000	0.00000000000000	0.00000000000000	0.00000000000000	-0.48051900000000	0.00000000000000	0.00000000000000	0.00000000000000	0.00000000000000	
2.51166100000000	58.70046400000000	808.64761799999997	72.66713500000000	0.10994600000000	0.00000000000000	0.13027200000000	0.00000000000000	0.00000000000000	0.00000000000000	0.00000000000000	0.00000000000000	0.00000000000000	0.00000000000000	-0.40793100000000	0.00000000000000	0.00000000000000	0.00000000000000	0.00000000000000	
2.51332500000000	57.81111600000000	807.66125399999999	72.66224500000000	0.10875600000000	0.00000000000000	0.13029600000000	0.00000000000000	0.00000000000000	0.00000000000000	0.00000000000000	0.00000000000000	0.00000000000000	0.00000000000000	-0.33576000000000	0.00000000000000	0.00000000000000	0.00000000000000	0.00000000000000	
2.51498900000000	56.92117400000000	806.54322800000000	72.64843900000000	0.10755700000000	0.00000000000000	0.13032200000000	0.00000000000000	0.00000000000000	0.00000000000000	0.00000000000000	0.00000000000000	0.00000000000000	0.00000000000000	-0.26423000000000	0.00000000000000	0.00000000000000	0.00000000000000	0.00000000000000	
2.51666100000000	56.03130600000000	805.29819599999996	72.62496899999999	0.10634900000000	0.00000000000000	0.13034900000000	0.00000000000000	0.00000000000000	0.00000000000000	0.00000000000000	0.00000000000000	0.00000000000000	0.00000000000000	-0.19355800000000	0.00000000000000	0.00000000000000	0.00000000000000	0.00000000000000	
2.51832500000000	55.14219500000000	803.93103399999995	72.59111500000000	0.10513400000000	0.00000000000000	0.13037700000000	0.00000000000000	0.00000000000000	0.00000000000000	0.00000000000000	0.00000000000000	0.00000000000000	0.00000000000000	-0.12395400000000	0.00000000000000	0.00000000000000	0.00000000000000	0.00000000000000	
2.51999100000000	54.25453900000000	802.44681700000001	72.54619400000000	0.10391400000000	0.00000000000000	0.13040600000000	0.00000000000000	0.00000000000000	0.00000000000000	0.00000000000000	0.00000000000000	0.00000000000000	0.00000000000000	-0.05562300000000	0.00000000000000	0.00000000000000	0.00000000000000	0.00000000000000	
2.52165800000000	53.36904500000000	800.85080800000003	72.48956300000000	0.10268900000000	0.00000000000000	0.13043600000000	0.00000000000000	0.00000000000000	0.00000000000000	0.00000000000000	0.00000000000000	0.00000000000000	0.00000000000000	0.01124100000000	0.00000000000000	0.00000000000000	0.00000000000000	0.00000000000000	
2.52332200000000	52.48643200000000	799.14844000000005	72.42062400000000	0.10146000000000	0.00000000000000	0.13046600000000	0.00000000000000	0.00000000000000	0.00000000000000	0.00000000000000	0.00000000000000	0.00000000000000	0.00000000000000	0.07645100000000	0.00000000000000	0.00000000000000	0.00000000000000	0.00000000000000	
